<svg xmlns="http://www.w3.org/2000/svg" width="300" height="590"><path fill-rule="evenodd" d="M1.818 82.016c.36-.168.985-.057 1.652-.057-.273-31.151-1.525-53.838 15.152-68.763C32.475.798 57.854 1.334 84.5 1.335H208c21.79.44 47.391-1.674 62.806 5.001 30.318 13.128 26.104 50.759 26.103 94.208 0 11.332.116 23.153.116 34.486.329.886 1.482-.047 1.441 1.688-.325 13.687.031 53.097.031 62.347-.44.362-1.317.407-1.349.146-.221 9.813-.193 24.133-.193 37.344 0 80.159.1 222.418.1 302.576-1.539 17.955-4.529 29.71-23.926 43.079-15.246 5.987-22.812 5.747-27.503 5.607-13.979 0-162.337.089-187.219.237-10.08-.374-13.315.07-23.522-2.981-8.15-2.539-15.12-7.226-19.835-13.349-3.292-3.777-12.07-15.825-11.52-34.127 0-73.326-.13-251.271-.13-324.597-.325-.156-1.65-.212-1.584-2.317 0-9.332.025-28.127.025-37.46.132-.308 1.312-.258 1.547-.81-.1-2.683.036-6.408-.028-9.922-.593-1.819-1.073-.729-1.446-1.948.163-6.021.006-20.158.008-28.622 0-2.141.024-6.283.057-9.323.008-.809 1.284-.311 1.434-1.087-.163-6.392.042-12.783-.02-17.629-.581-2.378-1.19-.211-1.481-1.582-.068-4.648.1-19.866-.094-20.284zm20.517-37.022l.537 502.603s-.636 22.922 24.986 24.364c19.096 0 206.766.037 206.766.037s24.686-3.482 24.418-27.576c0-18.857-.162-500.802-.162-500.802s.094-25.101-27.691-25.116c-10.872-.11-22.219-.367-27.311.019-5.52.419-4.579 6.258-4.71 8.644-.628 11.448-10.435 11.56-14.593 11.719-7.992.138-111.706-.147-111.706-.147-5.739.17-11.56-3.988-12.288-11.476-.266-2.723.555-8.375-5.272-8.688-5.702-.306-15.023-.135-24.407-.049-4.258.039-9.334.114-15.42 2.794-9.839 4.498-13.373 17.32-13.147 23.674z"/></svg>